# xmcd CD database file
#
# Track frame offsets:
#	150
#	16578
#	29967
#	45270
#	63607
#	83859
#	101562
#	122114
#	136745
#	155498
#	171794
#	184659
#	204274
#	221151
#	237805
#	258550
#	276199
#	295201
#	311302
#	327126
#	338115
#
# Disc length: 4701 seconds
#
# Revision: 0
# Processed by: cddbd v1.5.2PL0 Copyright (c) Steve Scherf et al.
# Submitted via: CDex 1.51
#
DISCID=2b125b15
DTITLE=Various Artist - Compilation Album
DYEAR=1900
DGENRE=Country
TTITLE0=Phil Vassar - Six-Pack Summer
TTITLE1=Toby Keith - Big Blue Note
TTITLE2=Chad Brock - Yes!
TTITLE3=Pat Green - Wave On Wave
TTITLE4=Brooks and Dunn - Only In America
TTITLE5=Tim McGraw - When The Stars Go Blue
TTITLE6=Kenny Chesney - Beer In Mexico
TTITLE7=Confederate Railroad - Trashy Women
TTITLE8=Kenny Chesney - She Thinks My Tractor's Sexy
TTITLE9=Ty Herndon - Steam
TTITLE10=Alan Jackson - Don't Rock The Jukebox
TTITLE11=Big and Rich - Wild West Show
TTITLE12=Phil Vassar - The Woman In My Life
TTITLE13=Various Artist - Ladies Love Country Boys
TTITLE14=Roomful Of Blues - Backseat Blues
TTITLE15=Jason Mraz - Geek In The Pink (Album Version)
TTITLE16=Nelly (featuring Christina Aguilera) - Tilt Ya Head Back
TTITLE17=Koffee Brown - After Party
TTITLE18=Brooks and Dunn - My Maria
TTITLE19=Havana Mambo - Patricia
TTITLE20=Brian McComas - 99.9 Percent Sure (I've Never Been Here Before)
EXTD=
EXTT0=
EXTT1=
EXTT2=
EXTT3=
EXTT4=
EXTT5=
EXTT6=
EXTT7=
EXTT8=
EXTT9=
EXTT10=
EXTT11=
EXTT12=
EXTT13=
EXTT14=
EXTT15=
EXTT16=
EXTT17=
EXTT18=
EXTT19=
EXTT20=
PLAYORDER=
